<svg width="18" height="18" viewBox="0 0 18 18" fill="none" xmlns="http://www.w3.org/2000/svg">
<path d="M14.9701 6.72C14.4676 6.165 13.7101 5.8425 12.6601 5.73V5.16C12.6601 4.1325 12.2251 3.1425 11.4601 2.4525C10.6876 1.7475 9.68255 1.4175 8.64005 1.515C6.84755 1.6875 5.34005 3.42 5.34005 5.295V5.73C4.29005 5.8425 3.53255 6.165 3.03005 6.72C2.30255 7.53 2.32505 8.61 2.40755 9.36L2.93255 13.5375C3.09005 15 3.68255 16.5 6.90755 16.5H11.0926C14.3176 16.5 14.9101 15 15.0676 13.545L15.5926 9.3525C15.6751 8.61 15.6976 7.53 14.9701 6.72ZM8.74505 2.5575C9.49505 2.49 10.2076 2.7225 10.7626 3.225C11.3101 3.72 11.6176 4.425 11.6176 5.16V5.685H6.38255V5.295C6.38255 3.96 7.48505 2.6775 8.74505 2.5575ZM9.00005 13.935C7.43255 13.935 6.15755 12.66 6.15755 11.0925C6.15755 9.525 7.43255 8.25 9.00005 8.25C10.5676 8.25 11.8426 9.525 11.8426 11.0925C11.8426 12.66 10.5676 13.935 9.00005 13.935Z" fill="#2D9CDB"/>
<path d="M8.25003 12.435C8.06253 12.435 7.87503 12.3375 7.77003 12.165C7.61253 11.9025 7.69503 11.55 7.96503 11.3925L8.63253 10.995V10.185C8.63253 9.8775 8.88753 9.6225 9.19503 9.6225C9.50253 9.6225 9.75003 9.87 9.75003 10.185V11.31C9.75003 11.505 9.64503 11.6925 9.48003 11.79L8.54253 12.3525C8.45253 12.405 8.34753 12.435 8.25003 12.435Z" fill="#2D9CDB"/>
</svg>
