<svg width="19" height="18" viewBox="0 0 19 18" fill="none" xmlns="http://www.w3.org/2000/svg">
<path d="M15.6414 5.865L9.75536 9.21C9.51839 9.345 9.22026 9.345 8.97565 9.21L3.08959 5.865C2.66916 5.625 2.56214 5.0625 2.88319 4.71C3.10488 4.4625 3.35714 4.26 3.62468 4.1175L7.76786 1.8675C8.65459 1.38 10.0917 1.38 10.9784 1.8675L15.1216 4.1175C15.3892 4.26 15.6414 4.47 15.8631 4.71C16.1689 5.0625 16.0618 5.625 15.6414 5.865Z" fill="#2D9CDB"/>
<path d="M8.92979 10.605V15.72C8.92979 16.29 8.34118 16.665 7.82137 16.4175C6.24666 15.66 3.59411 14.2425 3.59411 14.2425C2.66152 13.725 1.89709 12.42 1.89709 11.3475V7.4775C1.89709 6.885 2.53157 6.51 3.05137 6.8025L8.54758 9.93C8.7769 10.0725 8.92979 10.3275 8.92979 10.605Z" fill="#2D9CDB"/>
<path d="M9.80115 10.605V15.72C9.80115 16.29 10.3898 16.665 10.9096 16.4175C12.4843 15.66 15.1368 14.2425 15.1368 14.2425C16.0694 13.725 16.8338 12.42 16.8338 11.3475V7.4775C16.8338 6.885 16.1994 6.51 15.6796 6.8025L10.1834 9.93C9.95403 10.0725 9.80115 10.3275 9.80115 10.605Z" fill="#2D9CDB"/>
</svg>
