<svg width="14" height="14" viewBox="0 0 14 14" fill="none" xmlns="http://www.w3.org/2000/svg">
<path d="M12.8158 10.6925C12.8158 10.9025 12.7692 11.1184 12.67 11.3284C12.5708 11.5384 12.4425 11.7367 12.2733 11.9234C11.9875 12.2384 11.6725 12.4659 11.3167 12.6117C10.9667 12.7575 10.5875 12.8334 10.1792 12.8334C9.58417 12.8334 8.94834 12.6934 8.2775 12.4075C7.60667 12.1217 6.93584 11.7367 6.27084 11.2525C5.6 10.7625 4.96417 10.22 4.3575 9.61919C3.75667 9.01252 3.21417 8.37669 2.73 7.71169C2.25167 7.04669 1.86667 6.38169 1.58667 5.72252C1.30667 5.05752 1.16667 4.42169 1.16667 3.81502C1.16667 3.41835 1.23667 3.03919 1.37667 2.68919C1.51667 2.33335 1.73834 2.00669 2.04751 1.71502C2.42084 1.34752 2.82917 1.16669 3.26084 1.16669C3.42417 1.16669 3.58751 1.20169 3.73334 1.27169C3.88501 1.34169 4.01917 1.44669 4.12417 1.59835L5.47751 3.50585C5.58251 3.65169 5.65834 3.78585 5.71084 3.91419C5.76334 4.03669 5.79251 4.15919 5.79251 4.27002C5.79251 4.41002 5.75167 4.55002 5.67001 4.68419C5.59417 4.81835 5.48334 4.95835 5.34334 5.09835L4.9 5.55919C4.83584 5.62335 4.80667 5.69919 4.80667 5.79252C4.80667 5.83919 4.81251 5.88002 4.82417 5.92669C4.84167 5.97335 4.85917 6.00835 4.87084 6.04335C4.97584 6.23585 5.15667 6.48669 5.41334 6.79002C5.67584 7.09335 5.95584 7.40252 6.25917 7.71169C6.57417 8.02085 6.8775 8.30669 7.18667 8.56919C7.49 8.82585 7.74084 9.00085 7.93917 9.10585C7.96834 9.11752 8.00334 9.13502 8.04417 9.15252C8.09084 9.17002 8.1375 9.17585 8.19 9.17585C8.28917 9.17585 8.365 9.14085 8.42917 9.07669L8.8725 8.63919C9.01834 8.49335 9.15834 8.38252 9.2925 8.31252C9.42667 8.23085 9.56084 8.19002 9.70667 8.19002C9.8175 8.19002 9.93417 8.21335 10.0625 8.26585C10.1908 8.31835 10.325 8.39419 10.4708 8.49335L12.4017 9.86419C12.5533 9.96919 12.6583 10.0917 12.7225 10.2375C12.7808 10.3834 12.8158 10.5292 12.8158 10.6925Z" stroke="#292D32" stroke-miterlimit="10"/>
</svg>
