<svg width="14" height="13" viewBox="0 0 14 13" fill="none" xmlns="http://www.w3.org/2000/svg">
<path d="M9.30204 12.1873C9.82556 12.1873 10.25 11.7629 10.25 11.2394C10.25 10.7159 9.82556 10.2915 9.30204 10.2915C8.77852 10.2915 8.35413 10.7159 8.35413 11.2394C8.35413 11.7629 8.77852 12.1873 9.30204 12.1873Z" fill="white"/>
<path d="M4.96879 12.1873C5.49231 12.1873 5.91671 11.7629 5.91671 11.2394C5.91671 10.7159 5.49231 10.2915 4.96879 10.2915C4.44527 10.2915 4.02087 10.7159 4.02087 11.2394C4.02087 11.7629 4.44527 12.1873 4.96879 12.1873Z" fill="white"/>
<path d="M3.12171 2.13433L3.01337 3.46141C2.99171 3.716 3.19212 3.92725 3.44671 3.92725H11.7396C11.9671 3.92725 12.1567 3.75391 12.173 3.52641C12.2434 2.56766 11.5121 1.78766 10.5534 1.78766H3.89629C3.84212 1.54933 3.73379 1.32183 3.56587 1.13225C3.29504 0.845163 2.91587 0.677246 2.52587 0.677246H1.58337C1.36129 0.677246 1.17712 0.861413 1.17712 1.0835C1.17712 1.30558 1.36129 1.48975 1.58337 1.48975H2.52587C2.69379 1.48975 2.85087 1.56016 2.96462 1.67933C3.07837 1.80391 3.13254 1.96641 3.12171 2.13433Z" fill="white"/>
<path d="M11.6096 4.73975H3.3004C3.0729 4.73975 2.88874 4.91308 2.86707 5.13516L2.67207 7.49141C2.59624 8.41766 3.32207 9.2085 4.24832 9.2085H10.2717C11.0842 9.2085 11.7992 8.54225 11.8587 7.72975L12.0375 5.20016C12.0592 4.951 11.8642 4.73975 11.6096 4.73975Z" fill="white"/>
</svg>
