<svg width="23" height="23" viewBox="0 0 23 23" fill="none" xmlns="http://www.w3.org/2000/svg">
<path d="M15.1417 2.11789C14.7488 1.72497 14.0684 1.99331 14.0684 2.53956V5.88414C14.0684 7.28331 15.2567 8.44289 16.7038 8.44289C17.6142 8.45247 18.8792 8.45247 19.9621 8.45247C20.5084 8.45247 20.7959 7.81039 20.4125 7.42706C19.0325 6.03747 16.56 3.53622 15.1417 2.11789Z" fill="#2D9CDB"/>
<path d="M19.6458 9.7655H16.8762C14.605 9.7655 12.7554 7.91591 12.7554 5.64466V2.87508C12.7554 2.348 12.3241 1.91675 11.7971 1.91675H7.73373C4.78206 1.91675 2.39581 3.83341 2.39581 7.25466V15.7455C2.39581 19.1667 4.78206 21.0834 7.73373 21.0834H15.2662C18.2179 21.0834 20.6041 19.1667 20.6041 15.7455V10.7238C20.6041 10.1967 20.1729 9.7655 19.6458 9.7655ZM11.0208 17.0105H7.18748C6.79456 17.0105 6.46873 16.6847 6.46873 16.2917C6.46873 15.8988 6.79456 15.573 7.18748 15.573H11.0208C11.4137 15.573 11.7396 15.8988 11.7396 16.2917C11.7396 16.6847 11.4137 17.0105 11.0208 17.0105ZM12.9375 13.1772H7.18748C6.79456 13.1772 6.46873 12.8513 6.46873 12.4584C6.46873 12.0655 6.79456 11.7397 7.18748 11.7397H12.9375C13.3304 11.7397 13.6562 12.0655 13.6562 12.4584C13.6562 12.8513 13.3304 13.1772 12.9375 13.1772Z" fill="#2D9CDB"/>
</svg>
