<svg width="17" height="17" viewBox="0 0 17 17" fill="none" xmlns="http://www.w3.org/2000/svg">
<path d="M8.49998 0.583313C4.1379 0.583313 0.583313 4.1379 0.583313 8.49998C0.583313 12.8621 4.1379 16.4166 8.49998 16.4166C12.8621 16.4166 16.4166 12.8621 16.4166 8.49998C16.4166 4.1379 12.8621 0.583313 8.49998 0.583313ZM7.90623 5.33331C7.90623 5.00873 8.1754 4.73956 8.49998 4.73956C8.82456 4.73956 9.09373 5.00873 9.09373 5.33331V9.29165C9.09373 9.61623 8.82456 9.8854 8.49998 9.8854C8.1754 9.8854 7.90623 9.61623 7.90623 9.29165V5.33331ZM9.22831 11.9675C9.18873 12.0704 9.13331 12.1496 9.06206 12.2287C8.9829 12.3 8.89581 12.3554 8.80081 12.395C8.70581 12.4346 8.6029 12.4583 8.49998 12.4583C8.39706 12.4583 8.29415 12.4346 8.19915 12.395C8.10415 12.3554 8.01706 12.3 7.9379 12.2287C7.86665 12.1496 7.81123 12.0704 7.77165 11.9675C7.73206 11.8725 7.70831 11.7696 7.70831 11.6666C7.70831 11.5637 7.73206 11.4608 7.77165 11.3658C7.81123 11.2708 7.86665 11.1837 7.9379 11.1046C8.01706 11.0333 8.10415 10.9779 8.19915 10.9383C8.38915 10.8591 8.61081 10.8591 8.80081 10.9383C8.89581 10.9779 8.9829 11.0333 9.06206 11.1046C9.13331 11.1837 9.18873 11.2708 9.22831 11.3658C9.2679 11.4608 9.29165 11.5637 9.29165 11.6666C9.29165 11.7696 9.2679 11.8725 9.22831 11.9675Z" fill="#2D9CDB"/>
</svg>
