<svg width="16" height="16" viewBox="0 0 16 16" fill="none" xmlns="http://www.w3.org/2000/svg">
<path d="M6.00004 14.6667H10C13.3334 14.6667 14.6667 13.3334 14.6667 10V6.00004C14.6667 2.66671 13.3334 1.33337 10 1.33337H6.00004C2.66671 1.33337 1.33337 2.66671 1.33337 6.00004V10C1.33337 13.3334 2.66671 14.6667 6.00004 14.6667Z" stroke="#5E6366" stroke-width="1.5" stroke-linecap="round" stroke-linejoin="round"/>
<path d="M11.6667 8.00004C11.6667 10.0267 10.0267 11.6667 8.00004 11.6667C5.97337 11.6667 4.74003 9.62671 4.74003 9.62671M4.74003 9.62671H6.39337M4.74003 9.62671V11.46M4.33337 8.00004C4.33337 5.97337 5.96004 4.33337 8.00004 4.33337C10.4467 4.33337 11.6667 6.37337 11.6667 6.37337M11.6667 6.37337V4.54004M11.6667 6.37337H10.04" stroke="#5E6366" stroke-width="1.5" stroke-linecap="round" stroke-linejoin="round"/>
</svg>
