<svg width="18" height="18" viewBox="0 0 18 18" fill="none" xmlns="http://www.w3.org/2000/svg">
<path d="M4.10254 6.75C5.55229 6.75 6.72754 5.57475 6.72754 4.125C6.72754 2.67525 5.55229 1.5 4.10254 1.5C2.65279 1.5 1.47754 2.67525 1.47754 4.125C1.47754 5.57475 2.65279 6.75 4.10254 6.75Z" stroke="#5E6366" stroke-width="1.5"/>
<path d="M12.7275 11.25H14.9775C15.8025 11.25 16.4775 11.925 16.4775 12.75V15C16.4775 15.825 15.8025 16.5 14.9775 16.5H12.7275C11.9025 16.5 11.2275 15.825 11.2275 15V12.75C11.2275 11.925 11.9025 11.25 12.7275 11.25Z" stroke="#5E6366" stroke-width="1.5"/>
<path d="M9.00002 3.75H11.01C12.3975 3.75 13.0425 5.4675 12 6.3825L6.00752 11.625C4.96502 12.5325 5.61002 14.25 6.99002 14.25H9.00002" stroke="#5E6366" stroke-width="1.5" stroke-linecap="round" stroke-linejoin="round"/>
<path d="M4.11466 4.125H4.12333" stroke="#5E6366" stroke-width="2" stroke-linecap="round" stroke-linejoin="round"/>
<path d="M13.8647 13.875H13.8733" stroke="#5E6366" stroke-width="2" stroke-linecap="round" stroke-linejoin="round"/>
</svg>
