<svg width="18" height="18" viewBox="0 0 18 18" fill="none" xmlns="http://www.w3.org/2000/svg">
<path d="M5.85005 16.6125C3.86255 16.6125 2.24255 15 2.24255 13.005V10.875C2.24255 10.3725 2.73755 10.035 3.21005 10.2C3.40505 10.2675 3.60005 10.3125 3.80255 10.3425C3.89255 10.3575 3.98255 10.3725 4.07255 10.3725C4.18505 10.3875 4.30505 10.395 4.41755 10.395C5.25005 10.395 6.07505 10.0875 6.72755 9.55499C7.35005 10.0875 8.15255 10.395 9.00755 10.395C9.86255 10.395 10.6576 10.1025 11.2801 9.56249C11.9251 10.0875 12.7351 10.395 13.5601 10.395C13.6876 10.395 13.8226 10.3875 13.9426 10.3725C14.0326 10.365 14.1076 10.3575 14.1901 10.3425C14.4151 10.3125 14.6176 10.2525 14.8201 10.185C15.2851 10.0275 15.7726 10.3725 15.7726 10.86V13.005C15.7726 14.9925 14.1601 16.6125 12.1651 16.6125H5.85005Z" fill="#2D9CDB"/>
<path d="M16.485 6.4425L16.275 4.4475C15.975 2.2725 14.985 1.3875 12.8775 1.3875H5.11501C3.00001 1.3875 2.01751 2.2725 1.71001 4.47L1.51501 6.45C1.44001 7.2225 1.65001 7.9725 2.10751 8.5575C2.65501 9.27 3.49501 9.675 4.43251 9.675C5.34001 9.675 6.21001 9.2175 6.76501 8.49C7.25251 9.2175 8.08501 9.675 9.01501 9.675C9.94501 9.675 10.7625 9.24 11.2575 8.52C11.8125 9.2325 12.675 9.675 13.5675 9.675C14.5275 9.675 15.39 9.2475 15.93 8.4975C16.365 7.92 16.56 7.1925 16.485 6.4425ZM10.125 5.7975H7.87501C7.56751 5.7975 7.31251 5.55 7.31251 5.235C7.31251 4.9275 7.56751 4.6725 7.87501 4.6725H10.125C10.4325 4.6725 10.6875 4.9275 10.6875 5.235C10.6875 5.55 10.4325 5.7975 10.125 5.7975Z" fill="#2D9CDB"/>
</svg>
