<svg width="10" height="11" viewBox="0 0 10 11" fill="none" xmlns="http://www.w3.org/2000/svg">
<path d="M2.39169 7.16683C2.43752 6.96266 2.35419 6.671 2.20836 6.52516L1.19586 5.51266C0.879189 5.196 0.754189 4.8585 0.845856 4.56683C0.941689 4.27516 1.23752 4.07516 1.67919 4.00016L2.97919 3.7835C3.16669 3.75016 3.39586 3.5835 3.48336 3.41266L4.20002 1.97516C4.40836 1.56266 4.69169 1.3335 5.00002 1.3335C5.30836 1.3335 5.59169 1.56266 5.80002 1.97516L6.51669 3.41266C6.57086 3.521 6.68336 3.62516 6.80419 3.696L2.31669 8.1835C2.25836 8.24183 2.15836 8.18766 2.17502 8.10433L2.39169 7.16683Z" fill="#FCA95D"/>
<path d="M7.79163 6.52479C7.64163 6.67479 7.55829 6.96229 7.60829 7.16646L7.89579 8.42063C8.01663 8.94146 7.94163 9.33313 7.68329 9.52063C7.57913 9.59563 7.45413 9.63313 7.30829 9.63313C7.09579 9.63313 6.84579 9.55396 6.57079 9.39146L5.34996 8.66646C5.15829 8.55396 4.84163 8.55396 4.64996 8.66646L3.42913 9.39146C2.96663 9.66229 2.57079 9.70813 2.31663 9.52063C2.22079 9.44979 2.14996 9.35396 2.10413 9.22896L7.17079 4.16229C7.36246 3.97063 7.63329 3.88313 7.89579 3.92896L8.31663 3.99979C8.75829 4.07479 9.05413 4.27479 9.14996 4.56646C9.24163 4.85813 9.11663 5.19563 8.79996 5.51229L7.79163 6.52479Z" fill="#FCA95D"/>
</svg>
